<?xml version="1.0" encoding="utf-8"?>
<!-- Generator: Adobe Illustrator 23.0.1, SVG Export Plug-In . SVG Version: 6.00 Build 0)  -->
<svg version="1.1" id="Warstwa_1" xmlns="http://www.w3.org/2000/svg" xmlns:xlink="http://www.w3.org/1999/xlink" x="0px" y="0px"
	 viewBox="0 0 480 480" style="enable-background:new 0 0 480 480;" xml:space="preserve">
<style type="text/css">
	.st0{fill:#80ADC1;}
	.st1{fill:#A3D4F7;}
</style>
<path class="st0" d="M403.3,128.7c-4.7,0-9.6,0.5-14.2,1.4c-3.5-17.4-14.9-32.3-30.9-40.4s-34.8-8.4-51.1-0.9
	C292.4,48.5,247.5,27.7,207,42.4c-40.6,14.6-61.6,59.2-46.8,99.4c-35.6,1.1-63.6,30.3-63.1,65.6s29.5,63.7,65.1,63.7h241.2
	c39.6,0,71.7-31.8,71.7-71.2S442.9,128.7,403.3,128.7z"/>
<path d="M388.3,109.9c-0.1-0.2-0.3-0.4-0.4-0.6c-1.1-1.9-2.4-3.8-3.6-5.5c-0.6-0.9-1.3-1.7-2.1-2.7c-0.7-0.8-1.4-1.7-2.2-2.6
	c-1.5-1.7-3.2-3.4-4.8-4.9c-0.4-0.4-0.8-0.7-1.2-1.1c-3.6-3.1-7.5-5.7-11.7-8c-0.6-0.3-1.1-0.6-1.7-0.9c-2-0.9-4-1.8-6.1-2.6
	c-1.1-0.4-2.4-0.8-3.6-1.2c-1-0.3-2-0.6-3-0.8c-2.2-0.5-4.4-1-6.6-1.3c-0.6-0.1-1.3-0.2-2-0.2c-9.7-1.2-19.5-0.2-28.7,3
	c-0.8-1.8-1.7-3.6-2.8-5.4c-0.4-0.8-0.9-1.5-1.3-2.2c-0.6-0.9-1.1-1.9-1.7-2.9s-1.1-1.6-1.7-2.4c-0.6-0.8-1.1-1.6-1.7-2.4
	c-0.6-0.8-1.3-1.6-2-2.4c-0.6-0.8-1.1-1.4-1.7-2.1c-0.6-0.7-1.4-1.5-2.1-2.2c-0.7-0.7-1.3-1.4-2-2c-0.6-0.7-1.5-1.4-2.3-2
	c-0.7-0.7-1.3-1.3-2.2-1.9c-0.7-0.6-1.5-1.3-2.4-1.9c-0.8-0.6-1.4-1.2-2.3-1.7c-0.7-0.6-1.6-1.1-2.5-1.7c-0.8-0.6-1.5-1.1-2.4-1.6
	c-0.8-0.5-1.7-1-2.6-1.5c-0.9-0.5-1.6-1-2.5-1.4c-0.8-0.5-1.7-0.9-2.7-1.3c-0.9-0.4-1.7-0.9-2.6-1.3c-0.8-0.4-1.9-0.8-2.8-1.1
	c-0.9-0.4-1.9-0.8-2.8-1.1c-0.9-0.3-1.9-0.6-2.8-1c-0.9-0.3-1.9-0.6-2.9-0.9s-1.9-0.5-2.8-0.7s-2-0.5-3-0.7c-1-0.2-1.9-0.4-2.9-0.5
	c-0.9-0.2-2.1-0.4-3.1-0.5c-1-0.2-2-0.2-2.9-0.3c-0.9-0.1-2.1-0.2-3.1-0.3c-1-0.1-2-0.1-3-0.1c-0.9-0.1-4.1-0.3-7.7-0.3
	c-2.7,0.1-8.1,1-8.1,1c-41.6,6-72.6,41.4-72.7,83.2c0,6.8,0.8,13.6,2.6,20.2c-37,5.6-63.4,38.6-60.7,75.6
	c2.8,37,33.7,65.8,71.2,65.9h241.2c43.2,0,78.2-34.8,78.2-77.6s-35.1-77.6-78.2-77.6c-3.1,0-6.3,0.2-9.4,0.5
	c-0.1-0.2-0.1-0.4-0.2-0.6L388.3,109.9z M403.3,264.6H162.1c-32.2,0.1-58.4-25.4-58.9-57.3s25-58.3,57.2-59.1c2.1-0.1,4-1.1,5.2-2.9
	c1.1-1.7,1.4-3.9,0.7-5.8c-7.5-20.8-4.8-44,7.3-62.5s32.3-30.5,54.5-32.1c1.9-0.1,3.8-0.3,5.7-0.3c29.9,0.1,56.6,18.6,67.1,46.4
	c0.6,1.7,2,3.1,3.6,3.8c1.6,0.7,3.6,0.6,5.2-0.1c6.9-3.2,14.3-4.8,21.8-4.8c2.4,0,4.7,0.2,7.1,0.5c0.5,0.1,1,0.1,1.4,0.2
	c2,0.3,4,0.8,6,1.3c0.8,0.2,1.6,0.5,2.4,0.7c1.5,0.5,3,1.1,4.5,1.7c1.1,0.5,2.3,1.1,3.4,1.6c0.8,0.4,1.6,0.9,2.4,1.4
	c1.5,0.9,3.1,1.9,4.5,3.1c0.7,0.5,1.4,1.1,2.1,1.6c0.8,0.7,1.7,1.4,2.6,2.2c1.2,1.2,2.4,2.4,3.5,3.8c0.5,0.6,1.1,1.3,1.6,2
	c1.2,1.6,2.4,3.3,3.4,4.9c0.2,0.4,0.4,0.7,0.6,1.1c1.1,2,2.3,4.2,3.1,6.4c1.1,2.9,2,5.7,2.6,8.7c0.7,3.5,4.1,5.8,7.7,5.1
	c4.2-0.8,8.5-1.2,12.8-1.2c36,0,65.2,29,65.2,64.7S439.3,264.6,403.3,264.6z"/>
<path class="st1" d="M383.6,251.1c-5.9,0-11.7,0.6-17.4,1.7c-4.3-21.6-18.3-40-37.9-50s-42.7-10.4-62.7-1.1
	c-18.1-49.8-73.1-75.5-122.9-57.4s-75.5,73.1-57.4,122.9c-43.6,1.4-78.1,37.5-77.4,81.1c0.7,43.6,36.2,78.7,79.8,78.8h296
	c48.6,0,88-39.4,88-88S432.2,251.1,383.6,251.1z"/>
<path d="M365.3,226.7c-0.2-0.3-0.3-0.5-0.5-0.7c-1.4-2.3-2.8-4.6-4.4-6.8c-0.8-1.1-1.6-2.2-2.5-3.2s-1.8-2.1-2.7-3.2
	c-1.9-2.1-3.9-4.1-6-6c-0.5-0.5-1-0.9-1.5-1.3c-4.4-3.8-9.3-7.1-14.4-9.9c-0.7-0.4-1.4-0.7-2.2-1.1c-2.4-1.2-4.9-2.3-7.5-3.2
	c-1.4-0.5-2.9-1-4.4-1.5c-1.2-0.4-2.4-0.8-3.6-1.1c-2.7-0.7-5.4-1.2-8.1-1.6c-0.8-0.1-1.6-0.2-2.4-0.3c-11.9-1.5-23.9-0.3-35.2,3.7
	c-1.1-2.3-2.2-4.5-3.4-6.6c-0.5-1-1.1-1.9-1.7-2.8c-0.7-1.2-1.4-2.4-2.1-3.5c-0.8-1.1-1.4-2-2.1-3s-1.4-2-2.1-3s-1.6-2-2.4-3
	c-0.8-1-1.4-1.8-2.2-2.7s-1.7-1.8-2.6-2.8c-0.9-0.9-1.6-1.7-2.4-2.6c-0.8-0.8-1.8-1.7-2.8-2.6c-0.9-0.8-1.7-1.6-2.6-2.4
	c-0.9-0.8-1.9-1.6-2.9-2.4c-1-0.8-1.8-1.5-2.8-2.2c-0.9-0.7-2-1.4-3-2.1c-1-0.7-1.9-1.4-2.9-2s-2.1-1.3-3.2-1.9
	c-1.1-0.6-2-1.3-3.1-1.8c-1-0.6-2.2-1.1-3.3-1.7c-1.1-0.6-2.1-1.1-3.2-1.6c-1.1-0.5-2.2-1-3.4-1.4c-1.1-0.5-2.2-1-3.4-1.4
	c-1.1-0.4-2.3-0.8-3.4-1.2s-2.3-0.8-3.5-1.2s-2.3-0.6-3.5-0.9s-2.4-0.7-3.6-0.9c-1.3-0.3-2.3-0.5-3.5-0.7s-2.5-0.5-3.7-0.7
	c-1.3-0.2-2.4-0.3-3.6-0.4c-1.2-0.1-2.5-0.3-3.8-0.4c-1.3-0.1-2.4-0.1-3.6-0.2c-1.1-0.1-5.1-0.4-9.4-0.3c-3.3,0.1-10,1.3-10,1.3
	c-51.1,7.4-89.1,51.2-89.1,102.8c0,8.4,1.1,16.8,3.1,25c-45.4,6.9-77.9,47.6-74.5,93.5c3.4,45.8,41.4,81.3,87.4,81.5h296
	c53,0,96-43,96-96s-43-96-96-96c-3.8,0-7.7,0.2-11.5,0.7c-0.1-0.2-0.2-0.5-0.3-0.7L365.3,226.7z M383.6,418.1h-296
	c-39.4,0.2-71.7-31.4-72.3-70.9c-0.6-39.4,30.7-72,70.1-73c2.6-0.1,4.9-1.4,6.4-3.5c1.4-2.1,1.8-4.8,0.9-7.2
	c-9.3-25.8-6-54.3,8.9-77.3s39.6-37.7,66.9-39.8c2.3-0.2,4.6-0.4,7-0.4c36.7,0.1,69.5,23,82.4,57.4c0.8,2.1,2.4,3.8,4.4,4.6
	c2.1,0.9,4.4,0.8,6.4-0.1c8.4-3.9,17.5-5.9,26.8-5.9c2.9,0,5.8,0.2,8.6,0.6c0.6,0.1,1.2,0.1,1.8,0.2c2.5,0.4,4.9,1,7.3,1.7
	c1,0.3,2,0.6,2.9,0.9c1.9,0.6,3.7,1.4,5.5,2.2c1.4,0.6,2.8,1.3,4.1,2.1c1,0.5,2,1.1,2.9,1.7c1.9,1.2,3.8,2.4,5.5,3.8
	c0.9,0.7,1.7,1.3,2.6,2c1.1,0.9,2.1,1.8,3.1,2.8c1.5,1.5,2.9,3,4.3,4.6c0.7,0.8,1.3,1.6,2,2.5c1.5,2,2.9,4,4.2,6.1
	c0.3,0.5,0.5,0.9,0.8,1.4c1.4,2.5,2.7,5.2,3.8,7.9c1.4,3.5,2.5,7.1,3.2,10.8c0.9,4.3,5.1,7.1,9.4,6.3c5.2-1,10.5-1.6,15.8-1.6
	c44.2,0,80,35.8,80,80S427.8,418.1,383.6,418.1z"/>
</svg>
