<?xml version="1.0" encoding="utf-8"?>
<!-- Generator: Adobe Illustrator 23.0.1, SVG Export Plug-In . SVG Version: 6.00 Build 0)  -->
<svg version="1.1" id="Warstwa_1" xmlns="http://www.w3.org/2000/svg" xmlns:xlink="http://www.w3.org/1999/xlink" x="0px" y="0px"
	 viewBox="0 0 480 480" style="enable-background:new 0 0 480 480;" xml:space="preserve">
<style type="text/css">
	.st0{fill:#1C313D;}
	.st1{fill:#38393A;}
	.st2{fill:#60A2D7;}
</style>
<path class="st0" d="M399.3,163.7c-4.6,0-9.3,0.5-13.8,1.4c-3.4-17.1-14.5-31.7-30.1-39.6s-33.9-8.2-49.7-0.9
	c-14.3-39.5-58-59.9-97.4-45.5c-39.5,14.3-59.9,58-45.5,97.4c-34.6,1.1-61.9,29.7-61.4,64.3s28.7,62.4,63.3,62.4h234.7
	c38.5,0,69.8-31.2,69.8-69.8S437.8,163.7,399.3,163.7z"/>
<path d="M384.7,145.2c-0.1-0.2-0.3-0.4-0.4-0.6c-1.1-1.9-2.3-3.7-3.5-5.4c-0.6-0.9-1.3-1.7-2-2.6c-0.7-0.8-1.4-1.7-2.1-2.5
	c-1.5-1.7-3.1-3.3-4.7-4.8c-0.4-0.4-0.8-0.7-1.2-1.1c-3.5-3-7.3-5.6-11.4-7.8c-0.6-0.3-1.1-0.6-1.7-0.9c-1.9-0.9-3.9-1.8-5.9-2.5
	c-1.1-0.4-2.3-0.8-3.5-1.2c-1-0.3-1.9-0.6-2.9-0.8c-2.1-0.5-4.3-1-6.4-1.3c-0.6-0.1-1.3-0.2-1.9-0.2c-9.4-1.2-19-0.2-27.9,2.9
	c-0.8-1.8-1.7-3.5-2.7-5.3c-0.4-0.8-0.9-1.5-1.3-2.2c-0.6-0.9-1.1-1.9-1.7-2.8s-1.1-1.6-1.7-2.4s-1.1-1.6-1.7-2.4s-1.3-1.6-1.9-2.4
	s-1.1-1.4-1.7-2.1s-1.4-1.5-2-2.2c-0.7-0.7-1.3-1.4-1.9-2c-0.6-0.7-1.5-1.4-2.2-2c-0.7-0.7-1.3-1.3-2.1-1.9
	c-0.7-0.6-1.5-1.3-2.3-1.9s-1.4-1.2-2.2-1.7c-0.7-0.6-1.6-1.1-2.4-1.7s-1.5-1.1-2.3-1.6s-1.7-1-2.5-1.5c-0.9-0.5-1.6-1-2.4-1.4
	c-0.8-0.5-1.7-0.9-2.6-1.3s-1.7-0.9-2.5-1.3s-1.8-0.8-2.7-1.1c-0.9-0.4-1.8-0.8-2.7-1.1c-0.9-0.3-1.8-0.6-2.7-1
	c-0.9-0.3-1.8-0.6-2.8-0.9s-1.8-0.5-2.7-0.7c-0.9-0.2-1.9-0.5-2.9-0.7s-1.8-0.4-2.8-0.5c-0.9-0.2-2-0.4-3-0.5
	c-1-0.2-1.9-0.2-2.8-0.3c-0.9-0.1-2-0.2-3-0.3c-1-0.1-1.9-0.1-2.9-0.1c-0.9-0.1-4-0.3-7.5-0.3c-2.6,0.1-7.9,1-7.9,1
	c-40.5,5.9-70.6,40.6-70.7,81.5c0,6.7,0.8,13.3,2.5,19.8c-36,5.5-61.7,37.8-59.1,74.1c2.7,36.3,32.8,64.5,69.3,64.6h234.7
	c42,0,76.1-34.1,76.1-76.1s-34.1-76.1-76.1-76.1c-3,0-6.1,0.2-9.1,0.5c-0.1-0.2-0.1-0.4-0.2-0.6L384.7,145.2z M399.3,296.9H164.6
	c-31.3,0.1-56.8-24.9-57.3-56.2s24.3-57.1,55.6-57.9c2-0.1,3.9-1.1,5.1-2.8c1.1-1.7,1.4-3.8,0.7-5.7c-7.3-20.4-4.7-43.1,7.1-61.3
	s31.4-29.9,53-31.5c1.8-0.1,3.7-0.3,5.5-0.3c29.1,0.1,55.1,18.2,65.3,45.5c0.6,1.7,1.9,3,3.5,3.7s3.5,0.6,5.1-0.1
	c6.7-3.1,13.9-4.7,21.2-4.7c2.3,0,4.6,0.2,6.9,0.5c0.5,0.1,1,0.1,1.4,0.2c1.9,0.3,3.9,0.8,5.8,1.3c0.8,0.2,1.6,0.5,2.3,0.7
	c1.5,0.5,2.9,1.1,4.4,1.7c1.1,0.5,2.2,1.1,3.3,1.6c0.8,0.4,1.6,0.9,2.3,1.4c1.5,0.9,3,1.9,4.4,3c0.7,0.5,1.4,1.1,2,1.6
	c0.8,0.7,1.7,1.4,2.5,2.2c1.2,1.2,2.3,2.4,3.4,3.7c0.5,0.6,1.1,1.3,1.6,2c1.2,1.6,2.3,3.2,3.3,4.8c0.2,0.4,0.4,0.7,0.6,1.1
	c1.1,2,2.2,4.1,3,6.3c1.1,2.8,1.9,5.6,2.5,8.5c0.7,3.4,4,5.7,7.5,5c4.1-0.8,8.3-1.2,12.5-1.2c35,0,63.4,28.4,63.4,63.4
	S434.3,296.9,399.3,296.9z"/>
<path class="st1" d="M371,376c30.2,0.7,58.4-15,73.7-41s15.3-58.3,0-84.3c-15.3-26-43.5-41.7-73.7-41c-5.6,0-11.3,0.6-16.8,1.6
	c-6.9-32-35.4-54.8-68.1-54.5c-10,0-19.9,2.1-29,6.3c-16.1-41.3-59-65.5-102.7-57.8c-43.6,7.7-75.8,45-76.9,89.3
	c0,10.4,1.9,20.6,5.4,30.3c-27.1,0.2-52.1,14.9-65.4,38.5c-13.3,23.7-12.8,52.7,1.2,75.9c14,23.3,39.4,37.2,66.5,36.5"/>
<path class="st2" d="M336,408c0,17.7-14.3,32-32,32s-32-14.3-32-32c0-24,32-80,32-80S336,384,336,408z"/>
<path class="st2" d="M256,328c0,17.7-14.3,32-32,32s-32-14.3-32-32c0-24,32-80,32-80S256,304,256,328z"/>
<path class="st2" d="M184,424c0,17.7-14.3,32-32,32s-32-14.3-32-32c0-24,32-80,32-80S184,400,184,424z"/>
<path d="M304,448c22.1,0,40-17.9,40-40c0-25.4-29.7-78-33.1-84c-1.5-2.3-4.1-3.7-6.9-3.7s-5.4,1.4-6.9,3.7c-3.4,6-33.1,58.6-33.1,84
	C264,430.1,281.9,448,304,448z M304,344.8c10.1,19.3,24,49.1,24,63.2c0,13.3-10.7,24-24,24s-24-10.7-24-24
	C280,393.9,293.9,364.1,304,344.8z"/>
<path d="M224,368c22.1,0,40-17.9,40-40c0-25.4-29.7-78-33.1-84c-1.5-2.3-4.1-3.7-6.9-3.7s-5.4,1.4-6.9,3.7c-3.4,6-33.1,58.6-33.1,84
	C184,350.1,201.9,368,224,368z M224,264.8c10.1,19.3,24,49.1,24,63.2c0,13.3-10.7,24-24,24s-24-10.7-24-24
	C200,313.9,213.9,284.1,224,264.8z"/>
<path d="M145.1,340c-3.4,6-33.1,58.6-33.1,84c0,22.1,17.9,40,40,40s40-17.9,40-40c0-25.4-29.7-78-33.1-84c-1.5-2.3-4.1-3.7-6.9-3.7
	S146.6,337.7,145.1,340z M152,448c-13.3,0-24-10.7-24-24c0-14.1,13.9-43.9,24-63.2c10.1,19.3,24,49.1,24,63.2
	C176,437.3,165.3,448,152,448z"/>
<path d="M409.7,210.1c-0.2-0.1-0.4-0.1-0.5-0.2c-2.6-1.1-5.2-2.1-7.9-3c-0.4-0.1-0.8-0.3-1.2-0.4c-2.8-0.9-5.7-1.7-8.6-2.3
	c-0.3-0.1-0.6-0.1-0.8-0.2c-2.9-0.6-5.9-1.1-8.8-1.4c-0.3,0-0.6-0.1-0.9-0.1c-3.3-0.3-6.6-0.5-9.9-0.5c-3.6,0-7.3,0.2-10.9,0.6
	c-10.4-32-40.4-53.6-74.1-53.5c-2.1,0-4.2,0.1-6.3,0.3c-6.3,0.5-12.4,1.8-18.4,3.8c-0.1-0.2-0.2-0.4-0.3-0.6
	c-1.1-2.2-2.3-4.4-3.5-6.6c-0.5-0.9-1.1-1.8-1.6-2.6c-0.9-1.4-1.8-2.9-2.8-4.3c-0.7-1-1.4-1.9-2.1-2.9c-0.9-1.2-1.9-2.4-2.8-3.5
	c-2.6-3.2-5.4-6.2-8.3-9l-12.6-9.9c-16.8-11.4-36.6-17.5-57-17.5c-55-0.5-100.1,43.6-100.7,98.7c0,7.8,1,15.6,2.9,23.2
	C31,223.4,0.1,258.7,0,300.4c0.5,46.6,38.7,84,85.2,83.6c4.4,0,8-3.6,8-8s-3.6-8-8-8c-24.3,0.6-47.1-11.8-59.6-32.6
	c-12.5-20.8-12.9-46.8-1-67.9c11.9-21.2,34.3-34.3,58.6-34.4c2.6-0.1,4.9-1.4,6.4-3.5c1.4-2.1,1.8-4.8,0.9-7.2
	c-3.3-8.8-4.9-18.2-5-27.6c0.6-46.2,38.5-83.1,84.7-82.7c20.4,0,40.2,7.4,55.7,20.7c1.8,1.6,3.6,3.2,5.2,4.9c0.5,0.5,1.1,1,1.6,1.6
	c2,2.2,4,4.5,5.8,7c0.4,0.6,0.9,1.1,1.3,1.7c1.8,2.5,3.4,5.1,4.9,7.8c0.3,0.5,0.6,1.1,0.8,1.6c1.5,2.9,2.9,5.8,4,8.8
	c0.8,2.1,2.4,3.7,4.4,4.6s4.3,0.8,6.3-0.1c8.1-3.7,16.9-5.6,25.8-5.6c28.9-0.2,54.1,19.9,60.3,48.1c0.9,4.3,5.1,7.1,9.4,6.2
	c2.4-0.5,4.8-0.8,7.2-1.1c1.2-0.1,2.4-0.2,3.6-0.2c1.2-0.1,2.3-0.2,3.5-0.2c1.5,0,3.1,0.1,4.6,0.1c0.8,0,1.7,0.1,2.5,0.1
	c1.8,0.1,3.6,0.4,5.3,0.6c0.5,0.1,1,0.1,1.5,0.2c1.9,0.3,3.8,0.7,5.7,1.2l1.1,0.3c1.9,0.5,3.8,1.1,5.7,1.7l1,0.4
	c1.8,0.7,3.7,1.4,5.5,2.2c0.4,0.2,0.8,0.4,1.2,0.5c1.7,0.8,3.4,1.7,5.1,2.6c23.7,13.1,38.5,38,38.7,65.1c-0.6,42-35,75.6-77,75.1
	c-4.4,0-8,3.6-8,8s3.6,8,8,8c50.8,0.4,92.4-40.3,93-91.1c-0.1-30.2-15.3-58.3-40.4-75.1"/>
</svg>
