<?xml version="1.0" encoding="utf-8"?>
<!-- Generator: Adobe Illustrator 23.0.1, SVG Export Plug-In . SVG Version: 6.00 Build 0)  -->
<svg version="1.1" id="Warstwa_1" xmlns="http://www.w3.org/2000/svg" xmlns:xlink="http://www.w3.org/1999/xlink" x="0px" y="0px"
	 viewBox="0 0 512 512" style="enable-background:new 0 0 512 512;" xml:space="preserve">
<style type="text/css">
	.st0{fill:#BBDEFB;}
</style>
<g>
	<g>
		<path class="st0" d="M377,461.5c-50.4,0-84.5-9.7-117.5-19.1c-29.7-8.5-57.8-16.5-96.6-16.5c-61,0-111.1,32.7-111.6,33
			c-2.5,1.6-5.3,2.5-8.3,2.5c-5,0-9.7-2.5-12.5-6.7c-4.6-6.9-2.7-16.2,4.1-20.8c2.3-1.6,57.7-38.1,128.2-38.1
			c42.9,0,74.4,9,104.8,17.6c31,8.8,63.1,18,109.3,18h84c8.3,0,15,6.7,15,15c0,8.3-6.7,15-15,15H377z"/>
		<path d="M162.9,400.9c42.3,0,73.4,8.9,103.4,17.4c31.3,8.9,63.7,18.1,110.7,18.1h84c5.5,0,10,4.5,10,10c0,5.5-4.5,10-10,10h-84
			c-49.7,0-83.5-9.6-116.1-18.9c-30.1-8.6-58.5-16.7-98-16.7c-62.8,0-113.8,33.5-114.3,33.9c-1.7,1.1-3.6,1.7-5.5,1.7
			c-3.2,0-6.4-1.6-8.3-4.4c-3.1-4.6-1.8-10.8,2.7-13.9C39.7,436.7,93.8,400.9,162.9,400.9 M162.9,390.9c-72.1,0-128.7,37.4-131,38.9
			c-9.1,6.1-11.6,18.6-5.5,27.7c3.7,5.6,9.9,8.9,16.6,8.9c4,0,7.8-1.2,11.1-3.4c0.5-0.3,49.5-32.2,108.8-32.2
			c38.1,0,65.8,7.9,95.2,16.3c33.3,9.5,67.8,19.3,118.9,19.3h84c11,0,20-9,20-20c0-11-9-20-20-20h-84c-45.5,0-77.2-9-107.9-17.8
			C238.3,400,206.5,390.9,162.9,390.9L162.9,390.9z"/>
	</g>
</g>
<g>
	<g>
		<path class="st0" d="M377,288.8c-50.4,0-84.5-9.7-117.5-19.1c-29.7-8.5-57.8-16.5-96.6-16.5c-61,0-111.1,32.7-111.6,33
			c-2.5,1.6-5.3,2.5-8.3,2.5c-5,0-9.7-2.5-12.5-6.7c-4.6-6.9-2.7-16.2,4.1-20.8c2.3-1.6,57.7-38.1,128.2-38.1
			c43,0,74.4,9,104.8,17.6c31,8.8,63.1,18,109.3,18h84c8.3,0,15,6.7,15,15s-6.7,15-15,15H377z"/>
		<path d="M162.9,228.2c42.3,0,73.4,8.9,103.4,17.4c31.3,8.9,63.7,18.1,110.7,18.1h84c5.5,0,10,4.5,10,10c0,5.5-4.5,10-10,10h-84
			c-49.7,0-83.5-9.6-116.1-18.9c-30.1-8.6-58.5-16.7-98-16.7c-62.8,0-113.8,33.5-114.3,33.9c-1.7,1.1-3.6,1.7-5.5,1.7
			c-3.2,0-6.4-1.6-8.3-4.4c-3.1-4.6-1.8-10.8,2.7-13.9C39.7,264,93.8,228.2,162.9,228.2 M162.9,218.2c-72.1,0-128.7,37.4-131,38.9
			c-9.1,6.1-11.6,18.6-5.5,27.7c3.7,5.6,9.9,8.9,16.6,8.9c4,0,7.8-1.2,11.1-3.4c0.5-0.3,49.5-32.2,108.8-32.2
			c38.1,0,65.8,7.9,95.2,16.3c33.3,9.5,67.8,19.3,118.9,19.3h84c11,0,20-9,20-20s-9-20-20-20h-84c-45.5,0-77.2-9-107.9-17.8
			C238.3,227.3,206.5,218.2,162.9,218.2L162.9,218.2z"/>
	</g>
</g>
<g>
	<g>
		<path class="st0" d="M377,202.4c-50.4,0-84.5-9.7-117.5-19.1c-29.7-8.5-57.8-16.5-96.6-16.5c-61,0-111.1,32.7-111.6,33
			c-2.5,1.6-5.3,2.5-8.3,2.5c-5,0-9.7-2.5-12.5-6.7c-4.6-6.9-2.7-16.2,4.1-20.8c2.3-1.6,57.7-38.1,128.2-38.1
			c43,0,74.4,9,104.8,17.6c31,8.8,63.1,18,109.3,18h84c8.3,0,15,6.7,15,15s-6.7,15-15,15H377z"/>
		<path d="M162.9,141.9c42.3,0,73.4,8.9,103.4,17.4c31.3,8.9,63.7,18.1,110.7,18.1h84c5.5,0,10,4.5,10,10c0,5.5-4.5,10-10,10h-84
			c-49.7,0-83.5-9.6-116.1-18.9c-30.1-8.6-58.5-16.7-98-16.7c-62.8,0-113.8,33.5-114.3,33.9c-1.7,1.1-3.6,1.7-5.5,1.7
			c-3.2,0-6.4-1.6-8.3-4.4c-3.1-4.6-1.8-10.8,2.7-13.9C39.7,177.6,93.8,141.9,162.9,141.9 M162.9,131.9c-72.1,0-128.7,37.4-131,38.9
			c-9.1,6.1-11.6,18.6-5.5,27.7c3.7,5.6,9.9,8.9,16.6,8.9c4,0,7.8-1.2,11.1-3.4c0.5-0.3,49.5-32.2,108.8-32.2
			c38.1,0,65.8,7.9,95.2,16.3c33.3,9.5,67.8,19.3,118.9,19.3h84c11,0,20-9,20-20s-9-20-20-20h-84c-45.5,0-77.2-9-107.9-17.8
			C238.3,140.9,206.5,131.9,162.9,131.9L162.9,131.9z"/>
	</g>
</g>
<g>
	<g>
		<path class="st0" d="M377,116.1c-50.4,0-84.5-9.7-117.5-19.1c-29.7-8.5-57.8-16.5-96.6-16.5c-61,0-111.1,32.7-111.6,33
			c-2.5,1.6-5.3,2.5-8.3,2.5c-5,0-9.7-2.5-12.5-6.7c-4.6-6.9-2.7-16.2,4.1-20.8c2.3-1.6,57.7-38.1,128.2-38.1
			c43,0,74.4,9,104.8,17.6c31,8.8,63.1,18,109.3,18h84c8.3,0,15,6.7,15,15s-6.7,15-15,15H377z"/>
		<path d="M162.9,55.5c42.3,0,73.4,8.9,103.4,17.4c31.3,8.9,63.7,18.1,110.7,18.1h84c5.5,0,10,4.5,10,10c0,5.5-4.5,10-10,10h-84
			c-49.7,0-83.5-9.6-116.1-18.9c-30.1-8.6-58.5-16.7-98-16.7c-62.8,0-113.8,33.5-114.3,33.9c-1.7,1.1-3.6,1.7-5.5,1.7
			c-3.2,0-6.4-1.6-8.3-4.4c-3.1-4.6-1.8-10.8,2.7-13.9C39.7,91.3,93.8,55.5,162.9,55.5 M162.9,45.5c-72.1,0-128.7,37.4-131,38.9
			c-9.1,6.1-11.6,18.6-5.5,27.7c3.7,5.6,9.9,8.9,16.6,8.9c4,0,7.8-1.2,11.1-3.4c0.5-0.3,49.5-32.2,108.8-32.2
			c38.1,0,65.8,7.9,95.2,16.3c33.3,9.5,67.8,19.3,118.9,19.3h84c11,0,20-9,20-20c0-11-9-20-20-20h-84c-45.5,0-77.2-9-107.9-17.8
			C238.3,54.6,206.5,45.5,162.9,45.5L162.9,45.5z"/>
	</g>
</g>
<g>
	<g>
		<path class="st0" d="M377,375.1c-50.4,0-84.5-9.7-117.5-19.1c-29.7-8.5-57.8-16.5-96.6-16.5c-61,0-111.1,32.7-111.6,33
			c-2.5,1.6-5.3,2.5-8.3,2.5c-5,0-9.7-2.5-12.5-6.7c-4.6-6.9-2.7-16.2,4.1-20.8c2.3-1.6,57.7-38.1,128.2-38.1
			c42.9,0,74.4,9,104.8,17.6c31,8.8,63.1,18,109.3,18h84c8.3,0,15,6.7,15,15s-6.7,15-15,15H377z"/>
		<path d="M162.9,314.6c42.3,0,73.4,8.9,103.4,17.4c31.3,8.9,63.7,18.1,110.7,18.1h84c5.5,0,10,4.5,10,10c0,5.5-4.5,10-10,10h-84
			c-49.7,0-83.5-9.6-116.1-18.9c-30.1-8.6-58.5-16.7-98-16.7c-62.8,0-113.8,33.5-114.3,33.9c-1.7,1.1-3.6,1.7-5.5,1.7
			c-3.2,0-6.4-1.6-8.3-4.4c-3.1-4.6-1.8-10.8,2.7-13.9C39.7,350.3,93.8,314.6,162.9,314.6 M162.9,304.6c-72.1,0-128.7,37.4-131,38.9
			c-9.1,6.1-11.6,18.6-5.5,27.7c3.7,5.6,9.9,8.9,16.6,8.9c4,0,7.8-1.2,11.1-3.4c0.5-0.3,49.5-32.2,108.8-32.2
			c38.1,0,65.8,7.9,95.2,16.3c33.3,9.5,67.8,19.3,118.9,19.3h84c11,0,20-9,20-20s-9-20-20-20h-84c-45.5,0-77.2-9-107.9-17.8
			C238.3,313.6,206.5,304.6,162.9,304.6L162.9,304.6z"/>
	</g>
</g>
</svg>
